<?xml version="1.0" encoding="UTF-8"?>
<svg id="Layer_2" data-name="Layer 2" xmlns="http://www.w3.org/2000/svg" viewBox="0 0 345.25 73.96">
  <defs>
    <style>
      .cls-1 {
        fill: #231f20;
      }
    </style>
  </defs>
  <g id="Layer_1-2" data-name="Layer 1">
    <g>
      <path class="cls-1" d="M279.99,53.27c-2.15,0-3.78-1.7-3.78-3.85s1.63-3.78,3.78-3.78,3.7,1.63,3.7,3.78-1.63,3.85-3.7,3.85Z"/>
      <path class="cls-1" d="M5.18,55.07H0V14.71h5.18v7.17c2.22-4.96,6.88-7.91,13.83-7.91v5.4h-1.41c-6.73,0-12.42,3.03-12.42,13.16,0,0,0,22.55,0,22.55Z"/>
      <path class="cls-1" d="M44.21,55.67c-11.46,0-19.81-7.99-19.81-20.78s8.21-20.78,19.81-20.78,19.08,8.43,19.08,18.7c0,1.63,0,2.67-.15,4.06H29.65c.44,9.46,7.02,14.42,14.56,14.42,6.88,0,11.54-3.62,13.01-9.02h5.47c-1.85,7.61-8.36,13.39-18.48,13.39h0ZM29.65,32.68h28.39c.22-9.39-6.58-14.12-14.05-14.12s-13.75,4.73-14.34,14.12Z"/>
      <path class="cls-1" d="M74.24,19.07h-5.62v-4.36h5.62V4.58h5.25v10.13h11.09v4.36h-11.09v25.06c0,4.96,1.7,6.51,6.35,6.51h4.73v4.43h-5.54c-7.02,0-10.79-2.89-10.79-10.94v-25.06h0Z"/>
      <path class="cls-1" d="M167.11,13.45c6.58,0,11.09,3.11,13.53,6.51v-5.84h10.43v40.96h-10.43v-5.99c-2.44,3.55-7.1,6.66-13.61,6.66-10.35,0-18.64-8.5-18.64-21.29s8.28-21,18.71-21h0ZM169.77,22.54c-5.54,0-10.79,4.14-10.79,11.91s5.25,12.2,10.79,12.2,10.87-4.29,10.87-12.05-5.18-12.05-10.87-12.05Z"/>
      <path class="cls-1" d="M211.55,55.07h-10.35V14.11h10.35v6.35c2.59-4.21,6.88-6.95,12.57-6.95v10.87h-2.74c-6.14,0-9.84,2.36-9.84,10.28v20.41h0Z"/>
      <path class="cls-1" d="M259.76,32.45c0-6.58-3.62-10.13-9.09-10.13s-9.24,3.55-9.24,10.13v22.63h-10.35V14.11h10.35v5.1c2.67-3.48,7.1-5.69,12.35-5.69,9.54,0,16.34,6.21,16.34,17.52v24.03h-10.35v-22.63h0Z"/>
      <path class="cls-1" d="M125.52,33.77h-15.56c-1.21,0-1.35.15-1.27,1.34.4,6.22,4.59,11.01,10.75,11.91,4.67.68,8.59-.94,11.64-4.6.42-.5.42-.88-.07-1.33-1.07-1-2.12-2.04-3.15-3.09-.19-.2-.4-.62-.31-.82.09-.21.52-.38.79-.38,4.38-.02,8.76-.01,13.14-.02.64,0,.9.25.9.88,0,4.41,0,8.82-.02,13.22,0,.28-.18.71-.39.8-.21.09-.63-.1-.84-.29-.95-.89-1.87-1.81-2.77-2.76-.5-.52-.86-.5-1.36.04-4.51,4.93-10.14,7.35-16.79,7.04-9.96-.46-17.68-7.62-19.57-16.5-2.45-11.46,4.37-22.43,15.74-25.15,11.45-2.75,22.93,4.39,25.5,16.08.19.86.24,1.75.38,2.62.13.77-.17,1.03-.94,1.03-5.27-.02-10.53-.01-15.8-.01h0ZM130.83,26.51c-2.92-3.2-6.37-4.63-10.55-4.41-3.05.15-7.35,2.34-8.43,4.41h18.98,0Z"/>
      <path class="cls-1" d="M311.08,13.52c11.09,0,19.35,8.11,19.35,20.84s-8.26,20.99-19.35,20.99c-8.11,0-13.77-4.47-16.15-9.53v28.13h-5.14V14.12h5.14v8.93c2.38-5.14,8.04-9.53,16.15-9.53ZM310.04,18.06c-8.26,0-15.11,6.25-15.11,16.38s6.85,16.37,15.11,16.37,15.11-6.18,15.11-16.45-6.55-16.3-15.11-16.3Z"/>
      <path class="cls-1" d="M340.04,0h5.21v55.08h-5.21V0Z"/>
    </g>
  </g>
</svg>